<?xml version="1.0" encoding="UTF-8" standalone="no"?>
<!-- Created with Inkscape (http://www.inkscape.org/) -->

<svg
   xmlns:dc="http://purl.org/dc/elements/1.1/"
   xmlns:cc="http://creativecommons.org/ns#"
   xmlns:rdf="http://www.w3.org/1999/02/22-rdf-syntax-ns#"
   xmlns:svg="http://www.w3.org/2000/svg"
   xmlns="http://www.w3.org/2000/svg"
   version="1.1"
   width="500.61209"
   height="208.35236"
   id="svg2">
  <defs
     id="defs4" />
  <metadata
     id="metadata7">
    <rdf:RDF>
      <cc:Work
         rdf:about="">
        <dc:format>image/svg+xml</dc:format>
        <dc:type
           rdf:resource="http://purl.org/dc/dcmitype/StillImage" />
        <dc:title></dc:title>
      </cc:Work>
    </rdf:RDF>
  </metadata>
  <g
     transform="translate(-157.48096,-338.30612)"
     id="layer1">
    <g
       transform="translate(1.0101525,-79.296975)"
       id="g2996">
      <path
         d="m 240.2143,586.47915 c -4.00696,-1.37634 -6.74634,-3.23976 -10.09122,-6.86442 -7.02344,-7.61091 -7.40878,-9.88281 -7.40878,-43.68111 0,-32.56715 0.49919,-35.63423 7.04422,-43.28063 9.17454,-10.71839 30.38983,-10.40177 39.44914,0.58874 6.01707,7.29975 6.50664,10.5496 6.50664,43.19189 0,25.83408 -0.22376,30.14129 -1.80065,34.66054 -2.41521,6.92181 -9.5345,13.61909 -16.7574,15.76406 -6.81207,2.02297 -10.16742,1.94789 -16.94195,-0.37907 z m 12.4552,-15.66671 c 4.08925,-1.56919 4.5448,-5.00549 4.5448,-34.28211 0,-18.68215 -0.37602,-28.82787 -1.12972,-30.48207 -2.53049,-5.55381 -11.21007,-5.55381 -13.74056,0 -0.7537,1.6542 -1.12972,11.79992 -1.12972,30.48207 0,32.66536 0.41727,34.56033 7.66821,34.82434 1.19252,0.0434 2.89666,-0.20058 3.78699,-0.54223 z m 44.42628,15.11809 c -1.44019,-0.78266 -3.46519,-3.12714 -4.5,-5.20996 -1.74507,-3.51239 -1.90301,-7.10392 -2.17843,-49.53695 l -0.29695,-45.75 9.54695,0 9.54695,0 0,41.87756 c 0,35.842 0.21431,42.05542 1.48701,43.11166 2.21604,1.83915 5.81707,0.49243 9.88665,-3.6974 l 3.62634,-3.7335 0,-38.77916 0,-38.77916 9.5,0 9.5,0 0,50.5 0,50.5 -9.5,0 -9.5,0 0,-5.08499 0,-5.08498 -4.75,4.21683 c -2.6125,2.31926 -6.19805,4.8325 -7.96788,5.58499 -4.12547,1.75403 -11.04399,1.6892 -14.40064,-0.13494 z m -115.89551,-27.24691 -0.014,-27.75 -12.35773,-39.5 -12.35773,-39.5 10.03997,-0.28684 c 5.87688,-0.1679 10.29383,0.12392 10.65221,0.70378 0.33673,0.54484 3.52353,12.03449 7.08178,25.53255 3.55825,13.49806 6.69782,24.54386 6.97682,24.54622 0.279,0.002 2.90152,-9.10821 5.82784,-20.24571 2.92631,-11.1375 5.99247,-22.6125 6.81369,-25.5 l 1.49312,-5.25 10.53603,0 c 8.58332,0 10.43718,0.25759 10.0027,1.38983 -0.29333,0.7644 -5.96647,18.7451 -12.60699,39.95711 l -12.07368,38.56729 0,27.54288 0,27.54289 -10,0 -10,0 -0.014,-27.75 z"
         id="path2998"
         style="fill:#010101" />
      <path
         d="m 441.34427,625.38581 c -48.85511,-1.63106 -62.08418,-5.10925 -71.07832,-18.68793 -3.63402,-5.48637 -7.71277,-17.76461 -9.01196,-27.12868 -4.55994,-32.86623 -3.44114,-101.39852 2.04097,-125.02057 4.96428,-21.39073 16.63716,-31.87024 37.93103,-34.05318 20.91838,-2.14445 75.44855,-3.3128 128.48831,-2.75295 57.26139,0.60441 84.22065,1.8294 93.97535,4.27011 19.07826,4.77356 28.33491,18.82762 31.56296,47.92101 0.61025,5.5 1.3598,24.70115 1.66567,42.66923 1.23475,72.53476 -4.22202,95.61013 -25.01916,105.79996 -7.85295,3.84765 -12.99151,4.73209 -35.18482,6.05594 -24.1078,1.43806 -122.48232,2.02504 -155.37003,0.92706 z m 24.03405,-39.53701 c 1.68558,-0.87165 5.03824,-3.40396 7.45034,-5.62736 l 4.38564,-4.04254 0,5.12736 0,5.12736 9.5,0 9.5,0 0,-50 0,-50 -9.5,0 -9.5,0 0,38.13158 0,38.13158 -4.36842,4.36842 c -4.68865,4.68864 -6.58352,5.27362 -9.06015,2.79699 -1.37738,-1.37738 -1.57143,-6.62554 -1.57143,-42.5 l 0,-40.92857 -9.5,0 -9.5,0 0,43.3185 c 0,47.78673 0.39244,51.5683 5.76783,55.5794 3.40324,2.53949 11.96342,2.80956 16.39619,0.51728 z m 91.44947,-0.3212 c 1.74476,-1.06393 4.16263,-4.02967 5.5,-6.74627 2.3451,-4.7636 2.39232,-5.41996 2.72116,-37.82874 0.36054,-35.53172 -0.21188,-41.94742 -4.38516,-49.14916 -2.31955,-4.00279 -7.84932,-7.36981 -12.10371,-7.36981 -4.09798,0 -9.97121,2.75679 -14.44762,6.78147 l -4.89816,4.40387 0,-21.59267 0,-21.59267 -9,0 -9,0 0,67 0,67 9,0 9,0 0,-4.61636 0,-4.61636 4.10534,3.70892 c 2.25794,2.03991 5.52044,4.32466 7.25,5.07722 4.64385,2.02062 12.55778,1.79697 16.25815,-0.45944 z m -23.86349,-16.31351 -3.75,-2.17358 0,-30.66448 0,-30.66449 4.43738,-2.35402 c 3.60056,-1.9101 4.9678,-2.16769 7.25,-1.36594 4.93068,1.73217 5.46232,5.55212 5.11883,36.78004 l -0.30621,27.838 -2.80576,2.412 c -3.43574,2.95356 -5.12426,2.98624 -9.94424,0.19247 z m 84.25,16.1355 c 9.66465,-4.38154 14.01577,-11.78875 14.77804,-25.15768 l 0.49937,-8.75829 -9.6387,0 -9.63871,0 0,5.9349 c 0,7.26966 -1.12714,10.44707 -4.48684,12.64843 -3.7874,2.48161 -8.49418,0.90468 -10.76161,-3.60548 -1.36772,-2.72056 -1.74878,-6.03639 -1.75,-15.22785 l -0.002,-11.75 18,0 18,0 0,-14.6844 c 0,-18.47889 -1.44442,-24.36911 -7.67532,-31.29938 -5.50525,-6.12316 -11.40486,-8.56057 -20.32468,-8.39709 -7.3922,0.13548 -12.33229,1.9777 -17.52169,6.53406 -8.48162,7.44696 -9.76565,14.08225 -9.25906,47.84681 0.32916,21.93923 0.69352,27.28411 2.11707,31.05601 2.4316,6.44286 6.82499,11.34716 12.85845,14.35376 6.79839,3.38778 17.94729,3.6153 24.80523,0.5062 z m -21,-68.44809 c 0,-12.43895 3.19189,-16.68283 11.22108,-14.91932 4.03106,0.88537 5.77892,5.39778 5.77892,14.91932 l 0,7.53212 -8.5,0 -8.5,0 z m -172,12.03212 0,-57.5 11,0 11,0 0,-9.5 0,-9.5 -31.5,0 -31.5,0 0,9.5 0,9.5 10.5,0 10.5,0 0,57.5 0,57.5 10,0 10,0 z"
         id="path3000"
         style="fill:#d02726" />
    </g>
  </g>
</svg>
